<mxfile host="app.diagrams.net" modified="2023-10-28T22:27:08.410Z" agent="Mozilla/5.0 (Windows NT 10.0; Win64; x64) AppleWebKit/537.36 (KHTML, like Gecko) Chrome/118.0.0.0 Safari/537.36" etag="h31JgLIs5hluS-G2yIE7" version="22.0.8" type="github">
  <diagram name="Index" id="-D8-CAkWD_-L6msVdu2U">
    <mxGraphModel dx="1434" dy="788" grid="1" gridSize="10" guides="1" tooltips="1" connect="1" arrows="1" fold="1" page="1" pageScale="1" pageWidth="850" pageHeight="1100" math="0" shadow="0">
      <root>
        <mxCell id="0" />
        <mxCell id="1" parent="0" />
        <mxCell id="6wRkbpeY6bBnXJpjK5oW-1" value="&lt;h1 style=&quot;font-size: 30px;&quot;&gt;&lt;font style=&quot;font-size: 30px;&quot;&gt;Solution Architecture Process&lt;/font&gt;&lt;/h1&gt;&lt;p style=&quot;&quot;&gt;&lt;font style=&quot;font-size: 18px;&quot;&gt;In this workspace, I am trying to establish&amp;nbsp;&lt;/font&gt;&lt;/p&gt;&lt;p style=&quot;font-size: 17px;&quot;&gt;&lt;font style=&quot;font-size: 18px;&quot;&gt;- how to design from scratch&lt;br&gt;- trying to collate activities for solution architects in a project&lt;/font&gt;&lt;/p&gt;&lt;p style=&quot;font-size: 17px;&quot;&gt;&lt;font style=&quot;font-size: 18px;&quot;&gt;&lt;br&gt;&lt;/font&gt;&lt;/p&gt;&lt;p style=&quot;font-size: 17px;&quot;&gt;&lt;b&gt;Book References&lt;/b&gt;&lt;/p&gt;&lt;p style=&quot;font-size: 17px;&quot;&gt;1. Designing Software Architecture - A practical approach by Humberto Cervantes, Rick Kazman&lt;/p&gt;" style="text;html=1;strokeColor=none;fillColor=none;spacing=5;spacingTop=-20;whiteSpace=wrap;overflow=hidden;rounded=0;" vertex="1" parent="1">
          <mxGeometry x="40" y="40" width="780" height="510" as="geometry" />
        </mxCell>
      </root>
    </mxGraphModel>
  </diagram>
</mxfile>
